PathFileType	4	(X/Y/Z)	OpenSim_Sub01_EMGBaseline_Accel.trc
DataRate	CameraRate	NumFrames	NumMarkers	Units	OrigDataRate	OrigDataStartFrame	OrigNumFrames
100	100	24	8	m	100	951	7604
Frame#	Time	torso_imu_offset_imu	pelvis_imu_offset_imu	tibia_r_imu_offset_imu	femur_r_imu_offset_imu	tibia_l_imu_offset_imu	femur_l_imu_offset_imu	toes_r_imu_offset_imu	toes_l_imu_offset_imu
				X1	Y1	Z1	X2	Y2	Z2	X3	Y3	Z3	X4	Y4	Z4	X5	Y5	Z5	X6	Y6	Z6	X7	Y7	Z7	X8		Y8	Z8	

951	9.50000000	9.45659142	-1.22986113	5.73395811	9.76995585	0.73239091	3.51172493	10.25643914	1.44072470	-0.36052971	9.60780229	-0.49960203	-0.77761383	1.78929914	-4.70199590	1.67730493	11.06007178	1.57619283	0.46460853	5.53151291	-1.80197952	8.21849371	-0.34902915	1.36056939	10.08588230
952	9.51000000	9.14284840	-1.24153297	5.81546944	9.86387325	0.23520108	3.45261533	10.33484628	1.32368530	-0.15555158	9.69841601	-0.28244987	-0.33846627	1.91352847	-3.92059283	2.19871382	10.74933346	2.03826565	0.72107006	5.40917750	-1.66452569	8.29751582	-0.48993019	1.84471660	9.51784927
953	9.52000000	8.84006455	-1.30412788	5.85290265	9.83444941	-0.03372631	3.34632924	10.20337185	1.49108780	-0.00968719	9.74357766	0.15589703	0.02315574	1.80658047	-3.83801880	2.56496425	10.35606970	2.42800367	0.97081528	5.29395116	-1.58201414	8.35491154	-0.01475111	2.80639596	9.58865916
954	9.53000000	8.63322535	-1.39014557	5.86532616	9.60520445	0.03273280	3.18083922	9.96495054	2.03080925	0.07055299	9.81944336	0.68225461	0.25402746	1.42931172	-4.08078573	2.74830790	10.02273968	2.63140037	1.14601041	5.22176436	-1.57924928	8.35955448	0.57073166	3.02922455	9.80177181
955	9.54000000	8.52698231	-1.47351267	5.86291925	9.34067230	0.34018955	2.99905609	9.74817040	2.74515973	0.08888684	9.85173268	1.14166004	0.33523536	1.06118678	-4.48567031	2.79697625	9.73558412	2.66021015	1.22846461	5.18997640	-1.61772638	8.33880693	1.27918378	2.75696550	10.11176504
956	9.55000000	8.50874624	-1.52959723	5.85409668	9.23676131	0.75930659	2.85150979	9.67718510	3.38759815	0.05077849	9.74644181	1.38459953	0.25843166	1.02141376	-4.92967245	2.77024584	9.45438617	2.54989817	1.21011945	5.18972638	-1.64958475	8.32819760	2.20385005	2.47603047	10.54827083
957	9.56000000	8.53019322	-1.55138783	5.84546131	9.29208874	1.19528309	2.75075314	9.73882916	3.77062326	-0.04047434	9.53061780	1.40334151	0.07844375	1.34247854	-5.30996988	2.68246779	9.17521187	2.34280469	1.09719426	5.22578382	-1.66211139	8.32364392	3.20944817	2.26419213	11.01597078
958	9.57000000	8.51551813	-1.54543938	5.84221735	9.35343140	1.57991444	2.68010680	9.81425393	3.75224213	-0.18323047	9.32446243	1.29928545	-0.10129505	1.83617136	-5.53930128	2.51343163	8.92206160	2.08655698	0.90690274	5.31339771	-1.66964490	8.29058440	3.98488893	1.88473576	11.32342568
959	9.58000000	8.42472423	-1.52141381	5.84445331	9.30966593	1.85880932	2.62577779	9.81561763	3.27030627	-0.36105539	9.21013662	1.15908225	-0.21123007	2.34009172	-5.56800462	2.27128504	8.72456468	1.82158501	0.66112124	5.45041224	-1.68039941	8.21209047	4.36540030	1.20395521	11.36463525
960	9.59000000	8.32631693	-1.49716834	5.83716351	9.18637110	2.01658877	2.58478396	9.75529083	2.49644034	-0.51343064	9.14964562	1.01721711	-0.28618974	2.78539815	-5.45695185	2.05108137	8.62694123	1.56652845	0.39474054	5.58215374	-1.68232308	8.12595807	4.63441821	0.41826411	11.29482124
961	9.60000000	8.30248954	-1.49061863	5.80442789	9.03431776	2.04635449	2.55583148	9.66493759	1.64339826	-0.57610851	9.08790416	0.89557688	-0.37594608	3.12816779	-5.28311699	1.95718796	8.66760970	1.33404316	0.14459665	5.64680495	-1.66153665	8.07810072	5.14100352	-0.22691225	11.30745630
962	9.61000000	8.34008379	-1.49788331	5.75840079	8.90304856	1.96017981	2.53298127	9.58767952	0.89263405	-0.55099526	9.04650327	0.77185182	-0.46510467	3.43851010	-5.05862606	1.99291880	8.75781372	1.10753062	-0.05937142	5.62094610	-1.63288184	8.08450390	5.97622858	-0.66603940	11.44570935
963	9.62000000	8.35256774	-1.49830830	5.73283866	8.84114428	1.78475287	2.50672211	9.57543865	0.40147815	-0.49090814	9.10602138	0.58973042	-0.48812978	3.87428014	-4.74574127	2.08377445	8.71095460	0.84788679	-0.19254404	5.51073062	-1.63329139	8.13810997	7.03256853	-0.97203733	11.63706922
964	9.63000000	8.28890704	-1.47968743	5.74927767	8.87536834	1.56094161	2.47245711	9.65422389	0.28828964	-0.43079513	9.29791430	0.31966544	-0.41001702	4.54687764	-4.38025613	2.12360078	8.41367328	0.53478543	-0.24383273	5.34262466	-1.67577564	8.22527469	8.20127584	-1.18703983	11.83786679
965	9.64000000	8.20915389	-1.45619882	5.79129135	8.96772922	1.37063107	2.44046497	9.77237274	0.55747108	-0.34861564	9.50316503	0.01423646	-0.29031607	5.42295713	-4.22026787	1.91813187	7.97771522	0.20541725	-0.24194905	5.20119158	-1.70057288	8.31454363	9.38514965	-1.25111926	12.09897697
966	9.65000000	8.18963365	-1.44585690	5.83635199	9.06904120	1.29843418	2.42295169	9.86593044	1.17831163	-0.21653513	9.58306775	-0.25990278	-0.20308950	6.43891067	-4.53638701	1.28784916	7.55304376	-0.09219018	-0.22144873	5.17529200	-1.64060050	8.37252027	10.48718734	-1.09534666	12.47708564
967	9.66000000	8.24285360	-1.45108817	5.87566059	9.14176010	1.35631019	2.41980922	9.90188533	1.90995167	-0.07767875	9.52058470	-0.45270546	-0.17797939	7.47874040	-5.17147373	0.51765253	7.23874122	-0.30697369	-0.19422929	5.25736471	-1.52055166	8.38601925	11.38140943	-0.79845148	12.85428003
968	9.67000000	8.33219686	-1.46232133	5.91098643	9.15731534	1.50028732	2.42144998	9.87105754	2.34986727	-0.02976758	9.39232956	-0.52692099	-0.21042365	8.38616814	-5.63920873	0.24971717	7.09470971	-0.38554559	-0.15475055	5.36563874	-1.43574417	8.35741904	11.91964527	-0.55275111	12.97835630
969	9.68000000	8.42392371	-1.47209139	5.94420591	9.10322094	1.68215474	2.41780561	9.78045713	2.23561924	-0.13349712	9.26554644	-0.46188924	-0.28272605	9.06963118	-5.58217573	0.82370059	7.16406316	-0.29080739	-0.10307918	5.43756790	-1.45073684	8.29644738	12.10613263	-0.44752046	12.74671601
970	9.69000000	8.49659860	-1.48010915	5.97670599	9.01409910	1.84538083	2.39810388	9.68337957	1.73337590	-0.33537120	9.17248029	-0.28526911	-0.34077783	9.63294251	-5.05114470	1.65304424	7.44302541	-0.03424027	-0.05727515	5.47340322	-1.53329221	8.23348024	12.39967511	-0.25716981	12.51156601
971	9.70000000	8.53261891	-1.48750987	6.00910766	8.93139199	1.93428458	2.35298442	9.63823269	1.08800255	-0.56169546	9.13630864	-0.03392919	-0.32860573	10.20871509	-4.18263443	2.02279265	7.91016510	0.36280194	-0.03596368	5.48466580	-1.63462106	8.20062882	13.30051087	0.28173189	12.67195714
972	9.71000000	8.53769611	-1.49689206	6.03192473	8.86826761	1.92893209	2.29615977	9.65187532	0.53619527	-0.75245355	9.14135548	0.25112887	-0.26307107	10.82000280	-3.26700509	1.85909582	8.40959459	0.86563320	-0.01645110	5.47778669	-1.72604947	8.19884670	14.67134145	1.12778557	13.06968198
973	9.72000000	8.53548537	-1.51197953	6.02789842	8.81613575	1.83691435	2.25909155	9.69149142	0.30827797	-0.85817631	9.14205513	0.52572341	-0.21707912	11.40551786	-2.71289451	1.58154890	8.68202418	1.42930676	0.05575107	5.45528169	-1.79439267	8.20510929	15.88425392	2.00500349	13.11771023
974	9.73000000	8.54539504	-1.53506775	5.99013171	8.77555902	1.67543504	2.25709240	9.73344849	0.52368119	-0.85338381	9.11830920	0.74772051	-0.23284939	11.89803600	-2.73326163	1.51739704	8.60173915	2.01183503	0.21921682	5.42362041	-1.83263720	8.20508923	16.51435181	2.72446657	12.42446651
